PathFileType	4	(X/Y/Z)	Apose_0-50.trc
DataRate	CameraRate	NumFrames	NumMarkers	Units	OrigDataRate	OrigDataStartFrame	OrigNumFrames
30	30	6	22	m	30	25	50
Frame#	Time	Hip			RHip			RKnee			RAnkle			RBigToe			RSmallToe			RHeel			LHip			LKnee			LAnkle			LBigToe			LSmallToe			LHeel			Neck			Head			Nose			RShoulder			RElbow			RWrist			LShoulder			LElbow			LWrist		
		X1	Y1	Z1	X2	Y2	Z2	X3	Y3	Z3	X4	Y4	Z4	X5	Y5	Z5	X6	Y6	Z6	X7	Y7	Z7	X8	Y8	Z8	X9	Y9	Z9	X10	Y10	Z10	X11	Y11	Z11	X12	Y12	Z12	X13	Y13	Z13	X14	Y14	Z14	X15	Y15	Z15	X16	Y16	Z16	X17	Y17	Z17	X18	Y18	Z18	X19	Y19	Z19	X20	Y20	Z20	X21	Y21	Z21	X22	Y22	Z22
26	0.8666666666666667	0.03456448537129104	0.8853869142849762	0.3622996199398243	0.033040278620256415	0.8860458957894338	0.47409075947595086	0.004668326594516319	0.5061444535392313	0.5002186130077686	-0.007294652184528758	0.10569975847832713	0.5082721652920222	0.0	0.0	0.0	0.0	0.0	0.0	0.0	0.0	0.0	0.03616136081926788	0.8856924308122981	0.2504204825509453	0.03748456678410329	0.5077627989306068	0.22862620776309425	0.008767892039300933	0.12864043826807328	0.20670591385876066	0.0	0.0	0.0	0.0	0.0	0.0	0.0	0.0	0.0	0.02579367394416959	1.4780430219992353	0.34806727941133275	0.283626028348956	1.7207834767892107	0.373103169614092	0.24162113744601288	1.5912684445268261	0.32301659950313905	0.03093882220338897	1.492323248946798	0.5435080353898003	0.07195298359503831	1.2411824755970595	0.7168163373892804	0.14297799674795106	1.0334032632743728	0.885260862515209	0.013614014370599031	1.4744456801367367	0.14410719953744217	0.021366491894104514	1.2243158810309682	-0.0007733457737778749	0.08577467172727296	1.0219505524387227	-0.14639598701070627
27	0.9	0.034264765852995635	0.8883524823769589	0.3608912082641852	0.031249050409213677	0.889417105062774	0.4749377499394703	0.0008567245945203786	0.5095105847707286	0.5025519989767597	-0.005224558662543903	0.10299677118022053	0.5119169723205375	0.0	0.0	0.0	0.0	0.0	0.0	0.0	0.0	0.0	0.037412906659691526	0.888477324556153	0.24677217267993307	0.01739248853097536	0.4876940514189338	0.21558482415159905	-0.004912132382894754	0.11736280399555155	0.20465422370817926	0.0	0.0	0.0	0.0	0.0	0.0	0.0	0.0	0.0	0.021425202881966685	1.487704050891504	0.35150572480909364	0.28870969812806485	1.7224334825681984	0.3682591902828784	0.2889022722689677	1.6165326590110067	0.36528981620725626	0.03161444059453873	1.4926620420251204	0.5424074884591953	0.05215928719503153	1.2374574284738007	0.7100191369523116	0.14464311488034345	1.0293928968822175	0.8841057934774966	0.01596253085810958	1.4732575521199225	0.14606043217603557	0.023822719129107828	1.2225242953346085	-0.001684400818624018	0.08403352098877394	1.0130778489531407	-0.15169376522763645
28	0.9333333333333333	0.03560062778430245	0.8830617215131392	0.3609055835525087	0.032898501893903295	0.8827499102975612	0.4734748145290841	0.000527796846269003	0.5061039609509418	0.5025431753130094	-0.005535762910792368	0.10285602406950074	0.5129299273032564	0.0	0.0	0.0	0.0	0.0	0.0	0.0	0.0	0.0	0.03838162315650393	0.8845264993950899	0.24836583011638427	0.016526017948310316	0.4868550513656418	0.21806774525823108	0.004957159280497592	0.13102140053712402	0.20954433272948972	0.0	0.0	0.0	0.0	0.0	0.0	0.0	0.0	0.0	0.029847328466428995	1.4756890203233861	0.3486728008745508	0.2840914994098639	1.7236879996547956	0.37210940399834214	0.2831244783726549	1.6187485663563317	0.3703670704739997	0.032325036219892786	1.493405666728872	0.5433700100050162	0.04834264861700188	1.237690510325	0.706788658874049	0.1406884100780745	1.0353702650453926	0.88218144750924	0.019395903510922418	1.4711287891747031	0.14480136692303305	0.026761758146777136	1.2185810486231716	-0.0032928765266849475	0.08569211746872711	1.0110447581278599	-0.1492890100948657
29	0.9666666666666667	0.03346841002747207	0.8848138423198352	0.36080625119864845	0.03259529629450983	0.887028319993923	0.4734522692252416	0.004960264856951481	0.508460501385257	0.4991118794270591	-0.004194557625064343	0.10299841940488454	0.5090996974858384	0.0	0.0	0.0	0.0	0.0	0.0	0.0	0.0	0.0	0.03448696788068562	0.8835591358086773	0.2480516734887922	0.019773637325290992	0.4849602923590593	0.21637146707262497	0.0085930998121184	0.12900248142362944	0.2071619318388714	0.0	0.0	0.0	0.0	0.0	0.0	0.0	0.0	0.0	0.029185981091856546	1.4782086809601316	0.3479770018364423	0.28443963677184986	1.7242124494408384	0.37322786195031066	0.288264595165625	1.6186543221198244	0.3720676968575685	0.032467886858632944	1.4925765821525423	0.5415196374590037	0.07124493520410508	1.2408559536185866	0.7173212639581401	0.14314549793318063	1.0299277228825243	0.8849058927786133	0.01723002853661579	1.474572578120235	0.147093344749161	0.02562629817222564	1.2230333478228397	-0.003178578545851993	0.0822520017591359	1.0139459393112533	-0.14662996150901064
30	1.0	0.033178648486914035	0.885335791307901	0.35931815688826046	0.031751547566881734	0.887202042012987	0.4736503181289936	0.0020921840294742897	0.5080346018669816	0.5021065287295319	-0.00785874116738964	0.12371470393084795	0.5078365173312723	0.0	0.0	0.0	0.0	0.0	0.0	0.0	0.0	0.0	0.03483104847312584	0.884412869276119	0.24497274869253088	0.01800691752926794	0.48673304709059023	0.21939284480891902	0.00608149295438288	0.12655139451661843	0.20714366171226914	0.0	0.0	0.0	0.0	0.0	0.0	0.0	0.0	0.0	0.02984659809104361	1.4781064611707635	0.34887188494872184	0.28485422281015477	1.7269524654378559	0.37115760130349906	0.28611948611800136	1.62106931358354	0.36729732629127787	0.033010674699974346	1.4929219133530387	0.5422206272188737	0.07358985371718164	1.227116996645242	0.7169256290416618	0.14882242149708452	1.0304050890077145	0.882257231725391	0.018823121887746933	1.4750834870933582	0.14597789829516003	0.021761740135186024	1.223000007383323	-0.003220038810225379	0.08875437510315427	1.0163458121671038	-0.14651005388526417
31	1.0333333333333334	0.03297572800914671	0.8881916723995984	0.35935347645734045	0.031041466571145607	0.8868544644287246	0.4736247495699423	-0.0010464654694100793	0.5091635821471526	0.498549386769401	-0.005596232938187748	0.12286859906992086	0.5105864778765915	0.0	0.0	0.0	0.0	0.0	0.0	0.0	0.0	0.0	0.03511752641140382	0.890545319816522	0.24499523009909074	0.03600812698555645	0.50118787480378	0.2241198119702653	0.004107794096681084	0.12562440419841245	0.20574529233257532	0.0	0.0	0.0	0.0	0.0	0.0	0.0	0.0	0.0	0.0299384209466596	1.476674976532116	0.3495365921442618	0.285983212611155	1.7260424567160377	0.37215931927744883	0.24337138836749578	1.5979087434724004	0.32144584187946057	0.03420673093349183	1.494028303433722	0.5431190740330688	0.0738060160764973	1.2406642183009715	0.7170723410963653	0.15333112529067872	1.0298503222930941	0.8795965985013935	0.017669141216459294	1.4727749355687603	0.1473178422567294	0.02270278643474047	1.2223136225790947	-0.005646294362518527	0.08377616510138511	1.0113536316014105	-0.14892073952323112
